<svg width="19" height="20" viewBox="0 0 19 20" fill="none" xmlns="http://www.w3.org/2000/svg">
<g clip-path="url(#clip0_4_22)">
<path fill-rule="evenodd" clip-rule="evenodd" d="M9.49998 0.895874C7.42316 0.895874 5.73957 2.57947 5.73957 4.65629C5.73957 6.73311 7.42316 8.41671 9.49998 8.41671C11.5768 8.41671 13.2604 6.73311 13.2604 4.65629C13.2604 2.57947 11.5768 0.895874 9.49998 0.895874ZM7.3229 4.65629C7.3229 3.45392 8.29761 2.47921 9.49998 2.47921C10.7024 2.47921 11.6771 3.45392 11.6771 4.65629C11.6771 5.85866 10.7024 6.83337 9.49998 6.83337C8.29761 6.83337 7.3229 5.85866 7.3229 4.65629Z" fill="#777373"/>
<path fill-rule="evenodd" clip-rule="evenodd" d="M9.49998 10C3.27351 10 1.18748 13.3863 1.18748 15.1459C1.18748 15.9195 1.44882 16.6258 1.96363 17.1406C2.47843 17.6554 3.18466 17.9167 3.95832 17.9167H15.0417C15.8153 17.9167 16.5215 17.6554 17.0363 17.1406C17.5511 16.6258 17.8125 15.9195 17.8125 15.1459C17.8125 13.3863 15.7265 10 9.49998 10ZM2.77082 15.1459C2.77082 14.5304 3.85146 11.5834 9.49998 11.5834C15.1485 11.5834 16.2292 14.5304 16.2292 15.1459C16.2292 15.5597 16.0947 15.8431 15.9168 16.021C15.7389 16.1989 15.4555 16.3334 15.0417 16.3334H3.95832C3.54447 16.3334 3.26112 16.1989 3.08322 16.021C2.90531 15.8431 2.77082 15.5597 2.77082 15.1459Z" fill="#777373"/>
</g>
<defs>
<clipPath id="clip0_4_22">
<rect width="19" height="19" fill="white" transform="translate(0 0.5)"/>
</clipPath>
</defs>
</svg>
